<svg width="24" height="24" viewBox="0 0 24 24" fill="none" xmlns="http://www.w3.org/2000/svg">
<g id="ice-cream 1">
<path id="Vector" d="M6.216 11.868C6.21657 12.2892 6.38388 12.693 6.68134 12.9911C6.9788 13.2892 7.38221 13.4575 7.80336 13.459C7.69196 13.6413 7.63215 13.8504 7.63032 14.064V14.28C7.62965 14.5468 7.72038 14.8058 7.88741 15.0138C8.05444 15.2218 8.28769 15.3664 8.54832 15.4234L10.344 20.9206C10.4113 21.1241 10.5413 21.3011 10.7154 21.4261C10.8895 21.5512 11.0988 21.6178 11.3131 21.6166H12.685C12.8993 21.6178 13.1086 21.5512 13.2827 21.4261C13.4568 21.3011 13.5868 21.1241 13.6541 20.9206L15.451 15.4224C15.7116 15.3657 15.945 15.2213 16.1122 15.0135C16.2794 14.8056 16.3703 14.5468 16.3699 14.28V14.064C16.3683 13.8502 16.308 13.6409 16.1957 13.459C16.617 13.4578 17.0207 13.2897 17.3184 12.9915C17.6161 12.6933 17.7835 12.2894 17.784 11.868V11.7744C17.7836 11.5084 17.7036 11.2486 17.5543 11.0283C17.4051 10.8081 17.1934 10.6376 16.9464 10.5387C17.1516 10.2233 17.2728 9.86086 17.2988 9.48556C17.3247 9.11026 17.2544 8.73455 17.0945 8.39402C16.8732 7.92218 16.4912 7.54452 16.0169 7.32866C16.0762 7.05372 16.1061 6.77327 16.1062 6.49202C16.1062 5.40294 15.6735 4.35846 14.9034 3.58836C14.1333 2.81826 13.0888 2.38562 11.9998 2.38562C10.9107 2.38562 9.8662 2.81826 9.0961 3.58836C8.326 4.35846 7.89336 5.40294 7.89336 6.49202C7.89341 6.77361 7.92342 7.05439 7.98288 7.32962C7.69465 7.46204 7.43829 7.65496 7.23124 7.89526C7.02419 8.13557 6.8713 8.41763 6.78296 8.72228C6.69461 9.02693 6.67289 9.34702 6.71926 9.66082C6.76563 9.97461 6.879 10.2747 7.05168 10.5408C6.80546 10.64 6.59442 10.8103 6.44555 11.0301C6.29668 11.2498 6.21676 11.509 6.216 11.7744V11.868ZM13.1074 20.742C13.0785 20.8306 13.022 20.9075 12.9461 20.9614C12.8702 21.0153 12.779 21.0434 12.6859 21.0415H11.3141C11.2212 21.0426 11.1303 21.0141 11.0546 20.9602C10.9789 20.9064 10.9222 20.8299 10.8926 20.7418L9.16608 15.4594H14.8339L13.1074 20.742ZM15.7939 14.28C15.7948 14.4345 15.7357 14.5832 15.6289 14.6949C15.5221 14.8065 15.3761 14.8722 15.2218 14.8781C15.2182 14.8781 15.2146 14.8793 15.211 14.8795H15.2054C15.195 14.8802 15.1846 14.8815 15.1742 14.8834H8.82576C8.81552 14.8816 8.80518 14.8805 8.7948 14.88H8.78904C8.78544 14.88 8.78184 14.88 8.77824 14.8786C8.62381 14.8727 8.47774 14.8069 8.37095 14.6952C8.26416 14.5834 8.20504 14.4346 8.20608 14.28V14.064C8.20577 13.9815 8.22249 13.8998 8.2552 13.824C8.28791 13.7482 8.33589 13.68 8.39616 13.6236C8.50862 13.5189 8.65647 13.4604 8.81016 13.4599H15.1898C15.2658 13.4593 15.3412 13.4737 15.4116 13.5022C15.482 13.5308 15.546 13.5731 15.6 13.6265C15.6612 13.6817 15.7101 13.7492 15.7434 13.8246C15.7768 13.9 15.7938 13.9816 15.7934 14.064L15.7939 14.28ZM12.0024 2.95922C12.9384 2.96094 13.8355 3.33384 14.4969 3.99614C15.1583 4.65843 15.53 5.55603 15.5304 6.49202C15.5304 6.71424 15.5087 6.93593 15.4656 7.15394C15.4534 7.15178 15.4399 7.15106 15.4274 7.14938C15.4114 7.14698 15.3946 7.14554 15.378 7.14362C15.2824 7.13183 15.1863 7.12574 15.09 7.12538C15.0489 7.12465 15.0079 7.12754 14.9674 7.13402C14.5607 7.14951 14.1675 7.28348 13.836 7.51946C13.5931 7.68135 13.3859 7.89126 13.2271 8.13626C12.8629 7.89488 12.4357 7.76616 11.9988 7.76616C11.5619 7.76616 11.1347 7.89488 10.7705 8.13626C10.5665 7.82922 10.2906 7.57664 9.96676 7.40047C9.64295 7.2243 9.28101 7.12987 8.9124 7.12538C8.81758 7.12576 8.72286 7.13169 8.62872 7.14314C8.61096 7.1453 8.59272 7.14698 8.57544 7.14962C8.55816 7.15226 8.54712 7.15226 8.53344 7.15466C8.49017 6.93644 8.46838 6.71449 8.4684 6.49202C8.46948 5.55519 8.8422 4.65705 9.50475 3.99472C10.1673 3.33239 11.0656 2.95998 12.0024 2.95922ZM8.41056 7.77914C8.4204 7.77602 8.42928 7.7705 8.43888 7.76642L8.35728 7.49594L8.47008 7.75226L8.47248 7.75754C8.70476 7.69559 8.94777 7.68512 9.18452 7.72686C9.42127 7.76861 9.64604 7.86156 9.84312 7.99922C10.0973 8.16787 10.2965 8.40735 10.416 8.68802C10.4343 8.73052 10.4626 8.76799 10.4984 8.79725C10.5342 8.82651 10.5766 8.8467 10.6219 8.85612C10.6672 8.86554 10.7141 8.8639 10.7587 8.85135C10.8032 8.8388 10.844 8.81571 10.8778 8.78402C11.1826 8.49947 11.584 8.34121 12.001 8.34121C12.4179 8.34121 12.8194 8.49947 13.1242 8.78402C13.148 8.80568 13.1753 8.82306 13.205 8.83538C13.212 8.8385 13.219 8.84162 13.2262 8.84426C13.2554 8.85477 13.2861 8.86061 13.3171 8.86154H13.321C13.3773 8.86137 13.4323 8.8447 13.4792 8.81361C13.5261 8.78251 13.5629 8.73835 13.585 8.68658C13.7058 8.40266 13.9075 8.16059 14.165 7.99058C14.4133 7.81326 14.7089 7.71422 15.0139 7.70618C15.0322 7.70563 15.0503 7.70338 15.0682 7.69946H15.0922C15.238 7.69709 15.3835 7.71552 15.5242 7.75418L15.552 7.76186C15.5644 7.76782 15.5773 7.77296 15.5904 7.77722C15.805 7.84434 16.0033 7.95533 16.1727 8.10316C16.342 8.25099 16.4789 8.43242 16.5744 8.63594C16.6765 8.85377 16.7294 9.09138 16.7294 9.33194C16.7314 9.67103 16.627 10.0022 16.4309 10.2789C16.2349 10.5556 15.957 10.7638 15.6365 10.8744C15.464 10.9448 15.2789 10.9793 15.0926 10.9759C14.6955 10.9769 14.312 10.8311 14.0158 10.5665C13.998 10.5491 13.979 10.5331 13.9589 10.5185C13.8956 10.4725 13.8168 10.4529 13.7393 10.464C13.6938 10.4707 13.6504 10.4875 13.6123 10.5133C13.5742 10.5391 13.5423 10.5731 13.5192 10.6128C13.5134 10.6224 13.5074 10.6335 13.5017 10.6419C13.4884 10.6583 13.4771 10.6762 13.4678 10.6951C13.357 10.9242 13.1937 11.1239 12.9913 11.2782C12.789 11.4324 12.5531 11.5369 12.3029 11.5831C12.2938 11.5847 12.2848 11.5867 12.276 11.5891C12.1868 11.6094 12.0952 11.6174 12.0038 11.6131C11.6955 11.6142 11.3932 11.5278 11.132 11.3641C10.8707 11.2004 10.6612 10.9661 10.5276 10.6882C10.5196 10.6713 10.5099 10.6552 10.4988 10.6402L10.4966 10.6356C10.4887 10.62 10.4806 10.6044 10.4726 10.5903C10.4512 10.5546 10.4222 10.524 10.3878 10.5006C10.3534 10.4772 10.3143 10.4615 10.2732 10.4547C10.2322 10.4479 10.1901 10.45 10.15 10.461C10.1098 10.4719 10.0725 10.4915 10.0406 10.5183C10.0219 10.5321 10.0042 10.5474 9.98784 10.5641C9.69436 10.8319 9.3109 10.9795 8.9136 10.9776C8.52253 10.9787 8.14397 10.8399 7.84635 10.5862C7.54872 10.3325 7.35166 9.98069 7.29079 9.59439C7.22992 9.20808 7.30925 8.81274 7.51444 8.47982C7.71963 8.1469 8.03715 7.89837 8.4096 7.77914H8.41056ZM6.792 11.7744C6.79132 11.587 6.86083 11.4061 6.98684 11.2673C7.11285 11.1286 7.28625 11.042 7.47288 11.0247C7.48488 11.0347 7.49688 11.0436 7.51008 11.0537C7.53264 11.0719 7.55544 11.0897 7.57872 11.1072C7.61072 11.1309 7.64272 11.1539 7.67472 11.1761C7.69872 11.1922 7.72272 11.2078 7.74672 11.2241C7.78008 11.2447 7.81416 11.2642 7.84848 11.2829C7.87248 11.2968 7.89888 11.3105 7.9248 11.3232C7.95984 11.3407 7.9968 11.3566 8.03184 11.3712C8.05824 11.3825 8.08416 11.394 8.1108 11.4043C8.148 11.4187 8.18568 11.431 8.2236 11.4435C8.25024 11.4521 8.27664 11.4612 8.30376 11.4689C8.34336 11.4802 8.38392 11.4891 8.42376 11.4982C8.44968 11.5039 8.47536 11.5107 8.50176 11.5155C8.54664 11.5239 8.592 11.5294 8.6376 11.5351C8.66016 11.5378 8.68224 11.5419 8.70504 11.544C8.77344 11.5503 8.84232 11.5539 8.91192 11.5539C9.3492 11.5542 9.77646 11.4229 10.1381 11.1771C10.3381 11.4897 10.6138 11.7467 10.9398 11.9242C11.2657 12.1016 11.6313 12.1938 12.0024 12.192C12.1419 12.196 12.2812 12.1816 12.4169 12.1491C12.7105 12.0932 12.9897 11.978 13.2373 11.8105C13.4848 11.643 13.6957 11.4269 13.8569 11.1751C14.2208 11.4225 14.6509 11.5545 15.091 11.5539C15.3488 11.558 15.6048 11.51 15.8436 11.4127C15.911 11.3887 15.9766 11.3616 16.0409 11.3316C16.0625 11.3218 16.0829 11.31 16.1042 11.2992C16.1465 11.2779 16.1885 11.2558 16.2295 11.2315C16.2535 11.2174 16.2758 11.2023 16.2986 11.1874C16.3361 11.1634 16.3728 11.1394 16.4086 11.1118C16.4311 11.0952 16.4532 11.0779 16.475 11.0602C16.4914 11.0472 16.5086 11.0362 16.5247 11.022C16.7117 11.0403 16.8852 11.1274 17.0115 11.2664C17.1378 11.4055 17.2078 11.5866 17.208 11.7744V11.868C17.2077 12.1372 17.1006 12.3952 16.9103 12.5855C16.72 12.7758 16.462 12.8829 16.1928 12.8832H7.8072C7.53805 12.8829 7.28002 12.7758 7.0897 12.5855C6.89938 12.3952 6.79232 12.1372 6.792 11.868V11.7744Z" fill="black"/>
<path id="Vector_2" d="M8.47053 7.75195C8.46069 7.75771 8.44965 7.76131 8.43933 7.76611C8.45025 7.76263 8.46072 7.75788 8.47053 7.75195Z" fill="black"/>
</g>
</svg>
